<?xml version="1.0" encoding="utf-8"?>
<!-- Generator: Adobe Illustrator 17.0.0, SVG Export Plug-In . SVG Version: 6.00 Build 0)  -->
<!DOCTYPE svg PUBLIC "-//W3C//DTD SVG 1.1//EN" "http://www.w3.org/Graphics/SVG/1.1/DTD/svg11.dtd">
<svg version="1.1" id="Calque_1" xmlns="http://www.w3.org/2000/svg" xmlns:xlink="http://www.w3.org/1999/xlink" x="0px" y="0px"
	 width="1792px" height="1792px" viewBox="0 0 1792 1792" enable-background="new 0 0 1792 1792" xml:space="preserve">
<g id="_x30_-home">
	<g id="_x30_-0-homeold" transform="translate(-66.000000, -5767.000000)">
		<g id="footer" transform="translate(0.000000, 5604.000000)">
			<g id="newletter">
				<g id="Page-1" transform="translate(66.000000, 163.000000)">
					<path id="Fill-1" d="M567.6,1622.7c-207.3,0-400.2-60.7-562.7-164.6c28.7,3.4,57.9,5.1,87.6,5.1c172,0,330.2-58.6,455.8-156.9
						c-160.6-3-296.2-108.9-342.9-254.5c22.4,4.3,45.4,6.6,69.1,6.6c33.5,0,65.9-4.5,96.7-12.9C203.3,1011.9,76.8,863.8,76.8,686.3
						c0-1.5,0-3.1,0-4.6c49.5,27.4,106.1,43.9,166.3,45.8c-98.5-65.7-163.3-177.9-163.3-305c0-67.2,18.1-130.1,49.7-184.2
						C310.5,460,581,605.9,886,621.1c-6.3-26.8-9.5-54.8-9.5-83.5c0-202.4,164.3-366.4,367.1-366.4c105.6,0,201,44.5,267.9,115.7
						c83.6-16.4,162.2-46.9,233.1-88.9c-27.4,85.6-85.6,157.4-161.4,202.7c74.2-8.9,145-28.6,210.8-57.7
						c-49.2,73.5-111.4,138-183.2,189.7c0.7,15.7,1.1,31.5,1.1,47.4C1611.9,1064.3,1242.7,1622.7,567.6,1622.7"/>
				</g>
			</g>
		</g>
	</g>
</g>
</svg>
