<?xml version="1.0" encoding="utf-8"?>
<!-- Generator: Adobe Illustrator 17.0.0, SVG Export Plug-In . SVG Version: 6.00 Build 0)  -->
<!DOCTYPE svg PUBLIC "-//W3C//DTD SVG 1.1//EN" "http://www.w3.org/Graphics/SVG/1.1/DTD/svg11.dtd">
<svg version="1.1" id="Calque_1" xmlns="http://www.w3.org/2000/svg" xmlns:xlink="http://www.w3.org/1999/xlink" x="0px" y="0px"
	 width="1792px" height="1792px" viewBox="0 0 1792 1792" enable-background="new 0 0 1792 1792" xml:space="preserve">
<path fill="#010101" d="M1693.6-0.2H101.8C48.1-0.2,3.4,44.4,3.4,98.2v1590.6c0,54.8,44.7,98.4,98.4,98.4H958v-691.9H725.6V825.8
	h233.6V626.9c0-231.4,140.9-356.6,347.7-356.6c98.4,0,183.3,7.8,207.9,11.2v241.5h-143.1c-111.7,0-134.1,53.7-134.1,131.9v172h267.2
	l-34.7,268.3h-232.5v693.1h456.1c54.8,0,98.4-44.7,98.4-98.4V98.2C1792,44.6,1747.3-0.2,1693.6-0.2"/>
</svg>
